<?xml version="1.0" encoding="utf-8"?>
<!-- Generator: Adobe Illustrator 22.1.0, SVG Export Plug-In . SVG Version: 6.00 Build 0)  -->
<svg version="1.1" id="Layer_1" xmlns="http://www.w3.org/2000/svg" xmlns:xlink="http://www.w3.org/1999/xlink" x="0px" y="0px"
	 viewBox="0 0 959 593" style="enable-background:new 0 0 959 593;" xml:space="preserve">
<style type="text/css">
	.st0{fill:none;}
</style>
<path id="outlines" class="st0" d="M161.1,453.7l-0.3,85.4l1.6,1l3.1,0.2l1.5-1.1h2.6l0.2,2.9l7,6.8l0.5,2.6l3.4-1.9l0.6-0.2
	l0.3-3.1l1.5-1.6l1.1-0.2l1.9-1.5l3.1,2.1l0.6,2.9l1.9,1.1l1.1,2.4l3.9,1.8l3.4,6l2.7,3.9l2.3,2.7l1.5,3.7l5,1.8l5.2,2.1l1,4.4
	l0.5,3.1l-1,3.4l-1.8,2.3l-1.6-0.8l-1.5-3.1l-2.7-1.5l-1.8-1.1l-0.8,0.8l1.5,2.7l0.2,3.7l-1.1,0.5l-1.9-1.9l-2.1-1.3l0.5,1.6
	l1.3,1.8l-0.8,0.8c0,0-0.8-0.3-1.3-1c-0.5-0.6-2.1-3.4-2.1-3.4l-1-2.3c0,0-0.3,1.3-1,1c-0.6-0.3-1.3-1.5-1.3-1.5l1.8-1.9l-1.5-1.5
	v-5h-0.8l-0.8,3.4l-1.1,0.5l-1-3.7l-0.6-3.7l-0.8-0.5l0.3,5.7v1.1l-1.5-1.3l-3.6-6l-2.1-0.5l-0.6-3.7l-1.6-2.9l-1.6-1.1v-2.3
	l2.1-1.3l-0.5-0.3l-2.6,0.6l-3.4-2.4l-2.6-2.9l-4.8-2.6l-4-2.6l1.3-3.2V542l-1.8,1.6l-2.9,1.1l-3.7-1.1l-5.7-2.4h-5.5l-0.6,0.5
	l-6.5-3.9l-2.1-0.3l-2.7-5.8l-3.6,0.3l-3.6,1.5l0.5,4.5l1.1-2.9l1,0.3l-1.5,4.4l3.2-2.7l0.6,1.6l-3.9,4.4l-1.3-0.3l-0.5-1.9
	l-1.3-0.8l-1.3,1.1l-2.7-1.8l-3.1,2.1l-1.8,2.1l-3.4,2.1l-4.7-0.2l-0.5-2.1l3.7-0.6v-1.3l-2.3-0.6l1-2.4l2.3-3.9v-1.8l0.2-0.8
	l4.4-2.3l1,1.3h2.7l-1.3-2.6l-3.7-0.3l-5,2.7l-2.4,3.4l-1.8,2.6l-1.1,2.3l-4.2,1.5l-3.1,2.6l-0.3,1.6l2.3,1l0.8,2.1l-2.7,3.2
	l-6.5,4.2l-7.8,4.2l-2.1,1.1l-5.3,1.1l-5.3,2.3l1.8,1.3l-1.5,1.5l-0.5,1.1l-2.7-1l-3.2,0.2l-0.8,2.3h-1l0.3-2.4l-3.6,1.3l-2.9,1
	l-3.4-1.3l-2.9,1.9h-3.2l-2.1,1.3l-1.6,0.8l-2.1-0.3l-2.6-1.1l-2.3,0.6l-1,1l-1.6-1.1v-1.9l3.1-1.3l6.3,0.6l4.4-1.6l2.1-2.1l2.9-0.6
	l1.8-0.8l2.7,0.2l1.6,1.3l1-0.3l2.3-2.7l3.1-1l3.4-0.6l1.3-0.3l0.6,0.5h0.8l1.3-3.7l4-1.5l1.9-3.7l2.3-4.5l1.6-1.5l0.3-2.6l-1.6,1.3
	l-3.4,0.6l-0.6-2.4l-1.3-0.3l-1,1l-0.2,2.9l-1.5-0.2l-1.5-5.8l-1.3,1.3l-1.1-0.5l-0.3-1.9l-4,0.2l-2.1,1.1l-2.6-0.3l1.5-1.5l0.5-2.6
	L64,534l1.5-1l1.3-0.2l-0.6-1.8v-4.4l-1-1l-0.8,1.5h-6.1l-1.5-1.3l-0.6-3.9l-2.1-3.6v-1l2.1-0.8l0.2-2.1l1.1-1.1l-0.8-0.5l-1.3,0.5
	l-1.1-2.7l1-5l4.5-3.2l2.6-1.6l1.9-3.7l2.7-1.3l2.6,1.1l0.3,2.4l2.4-0.3l3.2-2.4l1.6,0.6l1,0.6h1.6l2.3-1.3l0.8-4.4
	c0,0,0.3-2.9,1-3.4c0.6-0.5,1-1,1-1l-1.1-1.9l-2.6,0.8l-3.2,0.8l-1.9-0.5l-3.6-1.8l-5-0.2l-3.6-3.7l0.5-3.9l0.6-2.4l-2.1-1.8
	l-1.9-3.7l0.5-0.8l6.8-0.5h2.1l1,1h0.6l-0.2-1.6l3.9-0.6l2.6,0.3l1.5,1.1l-1.5,2.1l-0.5,1.5l2.7,1.6l5,1.8l1.8-1l-2.3-4.4l-1-3.2
	l1-0.8l-3.4-1.9l-0.5-1.1l0.5-1.6l-0.8-3.9l-2.9-4.7l-2.4-4.2l2.9-1.9h3.2l1.8,0.6l4.2-0.2l3.7-3.6l1.1-3.1l3.7-2.4l1.6,1l2.7-0.6
	l3.7-2.1l1.1-0.2l1,0.8l4.5-0.2l2.7-3.1h1.1l3.6,2.4l1.9,2.1l-0.5,1.1l0.6,1.1l1.6-1.6l3.9,0.3l0.3,3.7l1.9,1.5l7.1,0.6l6.3,4.2
	l1.5-1l5.2,2.6l2.1-0.6l1.9-0.8l4.8,1.9L161.1,453.7z M46,482.6l2.1,5.3l-0.2,1l-2.9-0.3l-1.8-4l-1.8-1.5H39l-0.2-2.6l1.8-2.4
	l1.1,2.4l1.5,1.5L46,482.6z M43.4,516.1l3.7,0.8l3.7,1l0.8,1l-1.6,3.7l-3.1-0.2l-3.4-3.6L43.4,516.1z M22.7,502l1.1,2.6l1.1,1.6
	l-1.1,0.8l-2.1-3.1V502H22.7z M9,575.1l3.4-2.3l3.4-1l2.6,0.3l0.5,1.6l1.9,0.5l1.9-1.9l-0.3-1.6l2.7-0.6l2.9,2.6l-1.1,1.8l-4.4,1.1
	l-2.7-0.5l-3.7-1.1l-4.4,1.5l-1.6,0.3L9,575.1z M57.9,570.6l1.6,1.9l2.1-1.6l-1.5-1.3L57.9,570.6z M60.8,573.6l1.1-2.3l2.1,0.3
	l-0.8,1.9L60.8,573.6L60.8,573.6z M84.4,571.7l1.5,1.8l1-1.1l-0.8-1.9L84.4,571.7z M93.2,559.2l1.1,5.8l2.9,0.8l5-2.9l4.4-2.6
	l-1.6-2.4l0.5-2.4l-2.1,1.3l-2.9-0.8l1.6-1.1l1.9,0.8l3.9-1.8l0.5-1.5l-2.4-0.8l0.8-1.9l-2.7,1.9l-4.7,3.6l-4.8,2.9L93.2,559.2z
	 M135.5,539.4l2.4-1.5l-1-1.8l-1.8,1L135.5,539.4z M233.1,519.3l1.9-3.6l2.3-0.3l0.3,0.8l-2.1,3.1H233.1z M243.3,515.6l6.1,2.6
	l2.1-0.3l1.6-3.9l-0.6-3.4l-4.2-0.5l-4,1.8L243.3,515.6z M274,525.6l3.7,5.5l2.4-0.3l1.1-0.5l1.5,1.3l3.7-0.2l1-1.5l-2.9-1.8
	l-1.9-3.7l-2.1-3.6l-5.8,2.9L274,525.6z M294.2,534.5l1.3-1.9l4.7,1l0.6-0.5l6.1,0.6l-0.3,1.3l-2.6,1.5l-4.4-0.3L294.2,534.5z
	 M299.5,539.7l1.9,3.9l3.1-1.1l0.3-1.6l-1.6-2.1l-3.7-0.3L299.5,539.7z M306.5,538.5l2.3-2.9l4.7,2.4l4.4,1.1l4.4,2.7v1.9l-3.6,1.8
	l-4.8,1l-2.4-1.5L306.5,538.5z M323.1,554.1l1.6-1.3l3.4,1.6l7.6,3.6l3.4,2.1l1.6,2.4l1.9,4.4l4,2.6l-0.3,1.3l-3.9,3.2l-4.2,1.5
	l-1.5-0.6l-3.1,1.8l-2.4,3.2l-2.3,2.9l-1.8-0.2l-3.6-2.6l-0.3-4.5l0.6-2.4l-1.6-5.7l-2.1-1.8l-0.2-2.6l2.3-1l2.1-3.1l0.5-1l-1.6-1.8
	L323.1,554.1z M628.5,466.4l0.6,0.2l1.3-2.7l1.5-4.4l2.3,0.6l3.1,6v1l-2.7,1.9l2.7,0.3l5.2-2.5l-0.3-7.6l-2.5-1.8l-2-2l0.4-4
	l10.5-1.5l25.7-2.9l6.7-0.6l5.6,0.1l-0.5-2.2l-1.5-0.8l-0.9-1.1l1-2.6l-0.4-5.2l-1.6-4.5l0.8-5.1l1.7-4.8l-0.2-1.7l-1.8-0.7
	l-0.5-3.6l-2.7-3.4l-2-6.5l-1.4-6.7l-1.8-5l-3.8-16l-3.5-7.9l-0.8-5.6l0.1-2.2l-9,0.8l-23.4,2.2l-12.2,0.8l-0.2,6.4l0.2,16.7
	l-0.7,31l-0.3,14.1l2.8,18.8l1.6,14.7L628.5,466.4z M587.3,346.1l-6.4-0.7l0.9-3.1l3.1-2.6l0.6-2.3l-1.8-2.9l-31.9,1.2l-23.3,0.7
	l-23.6,0.3l1.5,6.9l0.1,8.5l1.4,10.9l0.3,38.2l2.1,1.6l3-1.2l2.9,1.2l0.4,10.1l25.2-0.2l26.8-0.8l0.9-1.9l-0.3-3.8l-1.7-3.1l1.5-1.4
	l-1.4-2.2l0.7-2.4l1.1-5.9l2.7-2.3l-0.8-2.2l4-5.6l2.5-1.1l-0.1-1.7l-0.5-1.7l2.9-5.8l2.5-1.1l0.2-3.3l2.1-1.4l0.9-4.1l-1.4-4
	l4.2-2.4l0.3-2.1l1.2-4.2l0.9-3.1L587.3,346.1z M135.1,389.7l-0.3,1.5l0.5,1l18.9,10.7l12.1,7.6l14.7,8.6l16.8,10l12.3,2.4l25.4,2.7
	l6-39.6l7-53.1l4.4-31l-24.6-3.6l-60.7-11l-0.2,1.1l-2.6,16.5l-2.1,3.8l-2.8-0.2l-1.2-2.6l-2.6-0.4l-1.2-1.1l-1.1,0.1l-2.1,1.7
	l-0.3,6.8l-0.3,1.5l-0.5,12.5l-1.5,2.4l-0.4,3.3l2.8,5l1.1,5.5l0.7,1.1l1.1,0.9l-0.4,2.4l-1.7,1.2l-3.4,1.6l-1.6,1.8l-1.6,3.6
	l-0.5,4.9l-3,2.9l-1.9,0.9l-0.1,5.8l-0.6,1.6l0.5,0.8l3.9,0.4l-0.9,3l-1.7,2.4l-3.7,0.4L135.1,389.7z M122.7,385.9l-19.7-2.7
	l-10-1.5l-0.5-1.8v-9.4l-0.3-3.2l-2.6-4.2l-0.8-2.3l-3.9-4.2l-2.9-4.7l-2.7-0.2l-3.2-0.8l-0.3-1l1.5-0.6l-0.6-3.2l-1.5-2.1l-4.8-0.8
	l-3.9-2.1l-1.1-2.3l-2.6-4.8l-2.9-3.1H57l-3.9-2.1l-4.5-1.8l-4.2-0.5l-2.4-2.7l0.5-1.9l1.8-7.1l0.8-1.9v-2.4l-1.6-1l-0.5-2.9
	l-1.5-2.6l-3.4-5.8l-1.3-3.1l-1.5-4.7l-1.6-5.3l-3.2-4.4l-0.5-2.9l0.8-3.9h1.1l2.1-1.6l1.1-3.6l-1-2.7l-2.7-0.5l-1.9-2.6l-2.1-3.7
	l-0.2-8.2l0.6-1.9l0.6-2.3l0.5-2.4l-5.7-6.3V236l0.3-0.5l0.3-3.2l-1.3-4l-2.3-4.8l-2.7-4.5l-1.8-3.9l1-3.7l0.6-5.8l1.8-3.1l0.3-6.5
	l-1.1-3.6l-1.6-4.2L14,184l0.8-3.2l1.5-4.2l1.8-0.8l0.3-1.1l3.1-2.6l5.2-11.8l0.2-7.4l1.7-4.9l38.7,11.8l25.6,6.6l-8,31.3l-8.7,33.1
	L88.8,250l42.2,62.3l17.1,26.1l-0.4,3.1l2.8,5.2l1.1,5.4l1,1.5l0.7,0.6l-0.2,1.4l-1.4,1l-3.4,1.6l-1.9,2.1l-1.7,3.9l-0.5,4.7
	l-2.6,2.5l-2.3,1.1l-0.1,6.2l-0.6,1.9l1,1.7l3,0.3l-0.4,1.6l-1.4,2l-3.9,0.6L122.7,385.9z M48.8,337l1.3,1.5l-0.2,1.3l-3.2-0.1
	l-0.6-1.2l-0.6-1.5L48.8,337z M50.7,337l1.2-0.6l3.6,2.1l3.1,1.2l-0.9,0.6l-4.5-0.2l-1.6-1.6L50.7,337z M71.4,356.8l1.8,2.3l0.8,1
	l1.5,0.6l0.6-1.5l-1-1.8l-2.7-2l-1.1,0.2L71.4,356.8L71.4,356.8z M70,365.5l1.8,3.2l1.2,1.9l-1.5,0.2l-1.3-1.2c0,0-0.7-1.5-0.7-1.9
	s0-2.2,0-2.2H70z M380.2,235.5l-36-3.5l-79.1-8.6l-2.2,22.1l-7,50.4l-1.9,13.7l34,3.9l37.5,4.4l34.7,3l14.3,0.6L380.2,235.5z
	 M852,190.9l3.6-3.2l1.9-2.1l0.8,0.6l2.7-1.5l5.2-1.1l7-3.5l-0.6-4.2l-0.8-4.4l-1.6-6l-4.3,1.1l-21.8,4.7l0.6,3.1l1.5,7.3v8.3
	l-0.9,2.1l1.7,2.2L852,190.9z M834.4,247.2l-1,0.5l-3.6-2.4l-1.8-4.7l-1.9-3.6l-2.3-1l-2.1-3.6l0.5-2l0.5-2.3l0.1-1.1l-0.6,0.1
	l-1.7,1l-2,1.7l-0.2,0.3l1.4,4.1l2.3,5.6l3.7,16.1l5-0.3l6-1.1L834.4,247.2z M750.2,445.2l-5.2-0.7l-0.7,0.8l1.5,4.4l-0.4,5.2
	l-4.1-1l-0.2-2.8H737l-5.3,0.7l-32.4,1.9l-8.2-0.3l-1.7-1.7l-2.5-4.2H681l-6.6,0.5l-35.4,4.2l-0.3,2.8l1.6,1.6l2.9,2l0.3,8.4
	l3.3-0.6l6-2.1l6-0.5l4.4-0.6l7.6,1.8l8.1,3.9l1.6,1.5l2.9,1.1l1.6,1.9l0.3,2.7l3.2-1.3h3.9l3.6-1.9l3.7-3.6l3.1,0.2l0.5-1.1l-0.8-1
	l0.2-1.9l4-0.8h2.6l2.9,1.5l4.2,1.5l2.4,3.7l2.7,1l1.1,3.4l3.4,1.6l1.6,2.6l1.9,0.6l5.2,1.3l1.3,3.1l3,3.7v9.5l-1.5,4.7l0.3,2.7
	l1.3,4.8l1.8,4l0.8-0.5l1.5-4.5l-2.6-1l-0.3-0.6l1.6-0.6l4.5,1l0.2,1.6l-3.2,5.5l-2.1,2.4l3.6,3.7l2.6,3.1l2.9,5.3l2.9,3.9l2.1,5
	l1.8,0.3l1.6-2.1l1.8,1.1l2.6,4l0.6,3.6l3.1,4.4l0.8-1.3l3.9,0.3l3.6,2.3l3.4,5.2l0.8,3.4l0.3,2.9l1.1,1l1.3,0.5l2.4-1l1.5-1.6
	l3.9-0.2l3.1-1.5l2.7-3.2l-0.5-1.9l-0.3-2.4l0.6-1.9l-0.3-1.9l2.4-1.3l0.3-3.4l-0.6-1.8l-0.5-12l-1.3-7.6l-4.5-8.2l-3.6-5.8
	l-2.6-5.3l-2.9-2.9L779,493l0.7-1.4l1.1-1.3l-1.6-2.9l-4-3.7l-4.8-5.5l-3.7-6.3l-5.3-9.4l-3.7-9.7l-2.3-7.3L750.2,445.2z
	 M767.9,577.9l2.4-0.6l1.3-0.2l1.5-2.3l2.3-1.6l1.3,0.5l1.7,0.3l0.4,1.1l-3.5,1.2l-4.2,1.5l-2.3,1.2L767.9,577.9z M781.4,572.9
	l1.2,1.1l2.7-2.1l5.3-4.2l3.7-3.9l2.5-6.6l1-1.7l0.2-3.4l-0.7,0.5l-1,2.8l-1.5,4.6l-3.2,5.3l-4.4,4.2l-3.4,1.9L781.4,572.9z
	 M750.2,444.2l-5.6-0.7l-1.4,1.6l1.6,4.7l-0.3,3.9l-2.2-0.6l-0.2-3h-5.2l-5.3,0.7l-32.3,1.9l-7.7-0.3l-1.4-1.2l-2.5-4.3l-0.8-3.3
	l-1.6-0.9l-0.5-0.5l0.9-2.2l-0.4-5.5l-1.6-4.5l0.8-4.9l1.7-4.8l-0.2-2.5l-1.9-0.7l-0.4-3.2l-2.8-3.5l-1.9-6.2l-1.5-7l-1.7-4.8
	l-3.8-16l-3.5-8l-0.8-5.3l0.1-2.3l3.3-0.3l13.6-1.6l18.6-2l6.3-1.1l0.5,1.4l-2.2,0.9l-0.9,2.2l0.4,2l1.4,1.6l4.3,2.7l3.2-0.1
	l3.2,4.7l0.6,1.6l2.3,2.8l0.5,1.7l4.7,1.8l3,2.2l2.3,3l2.3,1.3l2,1.8l1.4,2.7l2.1,1.9l4.1,1.8l2.7,6l1.7,5.1l2.8,0.7l2.1,1.9l2,5.7
	l2.9,1.6l1.7-0.8l0.4,1.2l-3.3,6.2l0.5,2.6l-1.5,4.2l-2.3,10l0.8,6.3L750.2,444.2z M556.8,183.6l2.1,2.1l0.3,0.7l-2,3l0.3,4l2.6,4.1
	l3.1,1.6l2.4,0.3l0.9,1.8l0.2,2.4l2.5,1l0.9,1.1l0.5,1.6l3.8,3.3l0.6,1.9l-0.7,3l-1.7,3.7l-0.6,2.4l-2.1,1.6l-1.6,0.5l-5.7,1.5
	L561,230l0.8,1.8l1.7,1.5l-0.2,3.5l-1.9,1.4l-0.7,1.8v2.4l-1.4,0.4l-1.7,1.4l-0.5,1.7l0.4,1.7l-1.3,1l-2.3-2.7l-1.4-2.8l-8.3,0.8
	l-10,0.6l-49.2,1.2l-1.6-4.3l-0.4-6.7l-1.4-4.2l-0.7-5.2l-2.2-3.7l-1-4.6l-2.7-7.8l-1.1-5.6l-1.4-1.9l-1.3-2.9l1.7-3.8l1.2-6.1
	l-2.7-2.2l-0.3-2.4l0.7-2.4l1.8-0.3l61.1-0.6l21.2-0.7L556.8,183.6z M175.3,27.6L170.5,45L166,65.9l-3.4,16.2l-0.4,9.7l1.2,4.4
	l3.5,2.7l-0.2,3.9l-3.9,4.4l-4.5,6.6l-0.9,2.9l-1.2,1.1l-1.8,0.8l-4.3,5.3l-0.4,3.1l-0.4,1.1l0.6,1l2.6-0.1l1.1,2.3l-2.4,5.8
	l-1.2,4.2l-8.8,35.3l20.7,4.5l39.5,7.9l34.8,6.1l4.9-29.2l3.8-24.1l-2.7-2.4l-0.4-2.6l-0.8-1.1l-2.1,1l-0.7,2.6l-3.2,0.5l-3.9-1.6
	l-3.8,0.1l-2.5,0.7l-3.4-1.5l-2.4,0.2l-2.4,2l-2-1.1l-0.7-4l0.7-2.9l-2.5-2.9l-3.3-2.6l-2.7-13.1l-0.1-4.7l-0.3-0.1l-0.2,0.4
	l-5.1,3.5l-1.7-0.2l-2.9-3.4l-0.2-3.1l7-17.1l-0.4-1.9l-3.4-1.2l-0.6-1.2l-2.6-3.5L191,70.4l-3.2-1.5l-2-5l1.3-4.6l-3.2-7.6
	l4.4-21.5L175.3,27.6z M618.7,214.3l-0.8-2.6l-1.3-3.7l-1.6-1.8l-1.5-2.6l-0.4-5.5l-15.9,1.8l-17.4,1h-12.3l0.2,2.1l2.2,0.9l1.1,1.4
	l0.4,1.4l3.9,3.4l0.7,2.4l-0.7,3.3l-1.7,3.7l-0.8,2.7l-2.4,1.9l-1.9,0.6l-5.2,1.3l-1.3,4.1l0.6,1.1l1.9,1.8l-0.2,4.3l-2.1,1.6
	l-0.5,1.3v2.8l-1.8,0.6l-1.4,1.2l-0.4,1.2l0.4,2l-1.6,1.3l-0.9,2.8l0.3,3.9l2.3,7l7,7.6l5.7,3.7v4.4l0.7,1.2l6.6,0.6l2.7,1.4
	l-0.7,3.5l-2.2,6.2l-0.8,3l2,3.7l6.4,5.3l4.8,0.8l2.2,5.1l2,3.4l-0.9,2.8l1.5,3.8l1.7,2.1l1.6-0.3l1-2.2l2.4-1.7l2.8-1l6.1,2.5
	l0.5-0.2v-1.1l-1.2-2.7l0.4-2.8l2.4-1.6l3.4-1.2l-0.5-1.3l-0.8-2l1.2-1.3l1-2.7v-4l0.4-4.9l2.5-3l1.8-3.8l2.5-4l-0.5-5.3l-1.8-3.2
	l-0.3-3.3l0.8-5.3l-0.7-7.2l-1.1-15.8l-1.4-15.3l-0.9-11.7L618.7,214.3z M622.9,216.1l1.5,1l1.1-0.3l2.1-1.9l2.5-1.8l14.3-1.1
	l18.4-1.8l1.6,15.5l4.9,42.6l-0.6,2.9l1.3,1.6l0.2,1.3l-2.3,1.6l-3.6,1.7l-3.2,0.4l-0.5,4.8l-4.7,3.6l-2.9,4l0.2,2.4l-0.5,1.4h-3.5
	l-1.4-1.7l-5.2,3l0.2,3.1l-0.9,0.2l-0.5-0.9L639,296l-3.6,1.5l-1.4,2.9l-1.2-0.6l-1.6-1.8l-4.4,0.5l-5.7,1l-2.5,1.3v-2.6l0.4-4.7
	l2.3-2.9l1.8-3.9l2.7-4.2l-0.5-5.8l-1.8-3.1l-0.3-3.2l0.8-5.3l-0.7-7.1l-0.9-12.6l-2.5-30.1L622.9,216.1z M485.9,259.5l-43.8-0.6
	l-40.6-1.2l-21.7-0.9l-4.3,64.8l24.3,1l44.7,2.1l46.3,0.6l12.6-0.3l0.7-35l-1.2-11.1l-2.5-2l-2.4-3l-2.3-3.6l0.6-3l1.7-1.4v-2.1
	l-0.8-0.7l-2.6-0.2l-3.5-3.4L485.9,259.5z M607.2,331.8l12.6-0.7l0.1-4.1h4.3l30.4-3.2l45.1-4.3l5.6-3.6l3.9-2.1l0.1-1.9l6-7.8
	l4.1-3.6l2.1-2.4l-3.3-2l-2.5-2.7l-3-3.8l-0.5-2.2l-2.6-1.4l-0.9-1.9l-0.2-6.1l-2.6-2l-1.9-1.1l-0.5-2.3l-1.3,0.2l-2,1.2l-2.5,2.7
	l-1.9-1.7l-2.5-0.5l-2.4,1.4h-2.3l-1.8-2l-5.6-0.1l-1.8-4.5l-2.9-1.5l-2.1,0.8l-4.2,0.2l-0.5,2.1l1.2,1.5l0.3,2.1l-2.8,2l-3.8,1.8
	l-2.6,0.4l-0.5,4.5l-4.9,3.6l-2.6,3.7l0.2,2.2l-0.9,2.3l-4.5-0.1l-1.3-1.3l-3.9,2.2l0.2,3.3l-2.4,0.6l-0.8-1.4l-1.7-1.2l-2.7,1.1
	l-1.8,3.5l-2.2-1l-1.4-1.6l-3.7,0.4l-5.6,1l-2.8,1.3l-1.2,3.4l-1,1l1.5,3.7l-4.2,1.4l-1.9,1.4l-0.4,2.2l1.2,2.4v2.2l-1.6,0.4
	l-6.1-2.5l-2.3,0.9l-2,1.4l-0.8,1.8l1.7,2.4l-0.9,1.8l-0.1,3.3l-2.4,1.3l-2.1,1.7L607.2,331.8z M526.9,485.9l8.1-0.3l10.3,3.6
	l6.5,1.1l3.7-1.5l3.2,1.1l3.2,1l0.8-2.1l-3.2-1.1l-2.6,0.5l-2.7-1.6l0.8-1.5l3.1-1l1.8,1.5l1.8-1l3.2,0.6l1.5,2.4l0.3,2.3l4.5,0.3
	l1.8,1.8l-0.8,1.6l-1.3,0.8l1.6,1.6l8.4,3.6l3.6-1.3l1-2.4l2.6-0.6l1.8-1.5l1.3,1l0.8,2.9l-2.3,0.8l0.6,0.6l3.4-1.3l2.3-3.4l0.8-0.5
	l-2.1-0.3l0.8-1.6l-0.2-1.5l2.1-0.5l1.1-1.3l0.6,0.8l0.6,3.1l4.2,0.6l4,1.9l1,1.5h2.9l1.1,1l2.3-3.1V493h-1.3l-3.4-2.7l-5.8-0.8
	l-3.2-2.3l1.1-2.7l2.3,0.3l0.2-0.6l-1.8-1v-0.5h3.2l1.8-3.1l-1.3-1.9l-0.3-2.7l-1.5,0.2l-1.9,2.1l-0.6,2.6l-3.1-0.6l-1-1.8l1.8-1.9
	l1.9-1.7l-2.2-6.5l-3.4-3.4l1-7.3l-0.2-0.5l-1.3,0.2l-33.1,1.4l-0.8-2.4l0.8-8.5l8.6-14.8l-0.9-2.6l1.4-0.4l0.4-2l-2.2-2l0.1-1.9
	l-2-4.5l-0.4-5.1l0.1-0.7l-26.4,0.8l-25.2,0.1l0.4,9.7l0.7,9.5l0.5,3.7l2.6,4.5l0.9,4.4l4.3,6l0.3,3.1l0.6,0.8l-0.7,8.3l-2.8,4.6
	l1.2,2.4l-0.5,2.6l-0.8,7.3l-1.3,3l0.2,3.7L526.9,485.9z M887.5,172.5l-0.5-2.3l0.8-1.5l2.9-1.5l0.8,3.1l-0.5,1.8l-2.4,1.5v1
	l1.9-1.5l3.9-4.5l3.9-1.9l4.2-1.5l-0.3-2.4l-1-2.9l-1.9-2.4l-1.8-0.8l-2.1,0.2l-0.5,0.5l1,1.3l1.5-0.8l2.1,1.6l0.8,2.7l-1.8,1.8
	l-2.3,1l-3.6-0.5l-3.9-6l-2.3-2.6h-1.8l-1.1,0.8l-1.9-2.6l0.3-1.5l2.4-5.2l-2.9-4.4l-3.7,1.8l-1.8,2.9l-18.3,4.7l-13.8,2.5
	l-0.6,10.6l0.7,4.9l22-4.8l11.2-2.8l2,1.6l3.4,4.3l2.9,4.7L887.5,172.5z M900,173.9l2.2-0.7l0.5-1.7l1,0.1l1,2.3l-1.3,0.5l-3.9,0.1
	L900,173.9z M890.6,174.7l2.3-2.6h1.6l1.8,1.5l-2.4,1l-2.2,1L890.6,174.7z M834.8,264.1l1.7-3.8l0.5-4.8l-6.3,1.1l-5.8,0.3
	l-3.8-16.8l-2.3-5.5l-1.5-4.6l-22.2,4.3l-37.6,7.6l2,10.4l4.8-4.9l2.5-0.7l1.4-1.5l1.8-2.7l1.6,0.7l2.6-0.2l2.6-2.1l2-1.5l2.1-0.6
	l1.5,1.1l2.7,1.4l1.9,1.8l1.3,1.4l4.8,1.6l-0.6,2.9l5.8,2.1l2.1-2.6l3.7,2.5l-2.1,3.3l-0.7,3.3l-1.8,2.6v2.1l0.3,0.8l2,1.3l3.4,1.1
	l4.3-0.1l3.1,1l2.1,0.3l1-2.1l-1.5-2.1v-1.8l-2.4-2.1l-2.1-5.5l1.3-5.3l-0.2-2.1l-1.3-1.3c0,0,1.5-1.6,1.5-2.3
	c0-0.6,0.5-2.1,0.5-2.1l1.9-1.3l1.9-1.6l0.5,1l-1.5,1.6l-1.3,3.7l0.3,1.1l1.8,0.3l0.5,5.5l-2.1,1l0.3,3.6l0.5-0.2l1.1-1.9l1.6,1.8
	l-1.6,1.3l-0.3,3.4l2.6,3.4l3.9,0.5l1.6-0.8l3.2,4.2l1,0.4L834.8,264.1z M820.3,264.3l1.1,2.5l0.2,1.8l1.1,1.9c0,0,0.9-0.9,0.9-1.2
	c0-0.3-0.7-3.1-0.7-3.1l-0.7-2.3L820.3,264.3z M865.8,91.9l1.5,0.4v-2.6l0.8-5.5l2.6-4.7l1.5-4l-1.9-2.4v-6l0.8-1l0.8-2.7l-0.2-1.5
	l-0.2-4.8l1.8-4.8l2.9-8.9l2.1-4.2h1.3l1.3,0.2v1.1l1.3,2.3l2.7,0.6l0.8-0.8v-1l4-2.9l1.8-1.8l1.5,0.2l6,2.4l1.9,1l9.1,29.9h6
	l0.8,1.9l0.2,4.8l2.9,2.3h0.8l0.2-0.5l-0.5-1.1l2.8-0.5l1.9,2.1l2.3,3.7V85l-2.1,4.7l-1.9,0.6l-3.4,3.1l-4.8,5.5c0,0-0.6,0-1.3,0
	c-0.6,0-1-2.1-1-2.1l-1.8,0.2l-1,1.5l-2.4,1.5l-1,1.5l1.6,1.5l-0.5,0.6l-0.5,2.7l-1.9-0.2v-1.6l-0.3-1.3l-1.5,0.3l-1.8-3.2l-2.1,1.3
	l1.3,1.5l0.3,1.1l-0.8,1.3l0.3,3.1l0.2,1.6l-1.6,2.6l-2.9,0.5l-0.3,2.9l-5.3,3.1l-1.3,0.5l-1.6-1.5l-3.1,3.6l1,3.2l-1.5,1.3
	l-0.2,4.4l-1.1,6.3l-2.2-0.9l-0.5-3.1l-4-1.1l-0.2-2.5l-11.7-37.4L865.8,91.9z M902.3,107.5l1.5-1.5l1.4,1.1l0.6,2.4l-1.7,0.9
	L902.3,107.5z M909,101.6l1.8,1.9c0,0,1.3,0.1,1.3-0.2c0-0.3,0.2-2,0.2-2l0.9-0.8l-0.8-1.8l-2,0.7L909,101.6z M644.5,211l19.1-1.9
	l0.2,1.1l9.9-1.5l12-1.7l0.1-0.6l0.2-1.5l2.1-3.7l2-1.7l-0.2-5.1l1.6-1.6l1.1-0.3l0.2-3.6l1.5-3l1.1,0.6l0.2,0.6l0.8,0.2l1.9-1
	l-0.4-9.1l-3.2-8.2l-2.3-9.1l-2.4-3.2l-2.6-1.8l-1.6,1.1l-3.9,1.8l-1.9,5l-2.7,3.7l-1.1,0.6l-1.5-0.6c0,0-2.6-1.5-2.4-2.1
	c0.2-0.6,0.5-5,0.5-5l3.4-1.3l0.8-3.4l0.6-2.6l2.4-1.6l-0.3-10l-1.6-2.3l-1.3-0.8l-0.8-2.1l0.8-0.8l1.6,0.3l0.2-1.6L676,131
	l-1.3-2.6h-2.6l-4.5-1.5l-5.5-3.4h-2.7l-0.6,0.6l-1-0.5l-3.1-2.3l-2.9,1.8l-2.9,2.3l0.3,3.6l1,0.3l2.1,0.5l0.5,0.8l-2.6,0.8
	l-2.6,0.3l-1.5,1.8l-0.3,2.1l0.3,1.6l0.3,5.5l-3.6,2.1l-0.6-0.2v-4.2l1.3-2.4l0.6-2.4l-0.8-0.8l-1.9,0.8l-1,4.2l-2.7,1.1l-1.8,1.9
	l-0.2,1l0.6,0.8l-0.6,2.6l-2.3,0.5v1.1l0.8,2.4l-1.1,6.1l-1.6,4l0.6,4.7l0.5,1.1l-0.8,2.4l-0.3,0.8l-0.3,2.7l3.6,6l2.9,6.5l1.5,4.8
	l-0.8,4.7l-1,6l-2.4,5.2l-0.3,2.7l-3.2,3.1L644.5,211z M611.2,138.6l-1.3-1.1l-1.8-10.4l-3.7-1.3l-1.7-2.3l-12.6-2.8l-2.8-1.1
	l-8.1-2.2l-7.8-1l-3.9-5.3l0.7-0.5l2.7-0.8l3.6-2.3v-1l0.6-0.6l6-1l2.4-1.9l4.4-2.1l0.2-1.3l1.9-2.9l1.8-0.8l1.3-1.8l2.3-2.3
	l4.4-2.4l4.7-0.5l1.1,1.1l-0.3,1l-3.7,1l-1.5,3.1l-2.3,0.8l-0.5,2.4l-2.4,3.2l-0.3,2.6l0.8,0.5l1-1.1l3.6-2.9l1.3,1.3h2.3l3.2,1
	l1.5,1.1l1.5,3.1l2.7,2.7l3.9-0.2l1.5-1l1.6,1.3l1.6,0.5l1.3-0.8h1.1l1.6-1l4-3.6l3.4-1.1l6.6-0.3l4.5-1.9l2.6-1.3l1.5,0.2v5.7
	l0.5,0.3l2.9,0.8l1.9-0.5l6.1-1.6l1.1-1.1l1.5,0.5v7l3.2,3.1l1.3,0.6l1.3,1l-1.3,0.3l-0.8-0.3l-3.7-0.5l-2.1,0.6l-2.3-0.2l-3.2,1.5
	h-1.8l-5.8-1.3l-5.2,0.2l-1.9,2.6l-7,0.6l-2.4,0.8l-1.1,3.1l-1.3,1.1l-0.5-0.2l-1.5-1.6l-4.5,2.4h-0.6l-1.1-1.6l-0.8,0.2l-1.9,4.4
	l-1,4l-3.2,6.9L611.2,138.6z M581.6,82.1l1.8-2.1l2.2-0.8l5.4-3.9l2.3-0.6l0.5,0.5l-5.1,5.1l-3.3,1.9l-2.1,0.9L581.6,82.1z
	 M667.8,114.2l0.6,2.5l3.2,0.2l1.3-1.2c0,0-0.1-1.5-0.4-1.6c-0.3-0.2-1.6-1.9-1.6-1.9l-2.2,0.2l-1.6,0.2l-0.3,1.1L667.8,114.2z
	 M464.6,66.8l-0.6,3.9V81l1.6,5l1.9,3.3l0.5,9.9l1.8,13.4l1.8,7.3l0.4,6.4v5.3l-1.6,1.8l-1.8,1.3v1.5l0.9,1.7l4.1,3.5l0.7,3.2v35.9
	l60.3-0.6l21.2-0.7l-0.5-6l-1.8-2.1l-7.2-4.6l-3.6-5.3l-3.4-0.9l-2-2.8h-3.2l-3.5-3.8l-0.5-7l0.1-3.9l1.5-3l-0.7-2.7l-2.8-3.1
	l2.2-6.1l5.4-4l1.2-1.4l-0.2-8l0.2-3l2.6-3l3.8-2.9l1.3-0.2l4.5-5l1.8-0.8l2.3-3.9l2.4-3.6l3.1-2.6l4.8-2l9.2-4.1l3.9-1.8l0.6-2.3
	l-4.4,0.4l-0.7,1.1h-0.6l-1.8-3.1l-8.9,0.3l-1,0.8h-1l-0.5-1.3l-0.8-1.8l-2.6,0.5l-3.2,3.2l-1.6,0.8h-3.1l-2.6-1v-2.1l-1.3-0.2
	l-0.5,0.5l-2.6-1.3l-0.5-2.9l-1.5,0.5l-0.5,1l-2.4-0.5l-5.3-2.4l-3.9-2.6h-2.9l-1.3-1l-2.3,0.6l-1.1,1.1l-0.3,1.3h-4.8v-2.1
	l-6.3-0.3l-0.3-1.5h-4.8l-1.6-1.6l-1.5-6.1l-0.8-5.5l-1.9-0.8l-2.3-0.5l-0.6,0.2l-0.3,8.2h-30.1L464.6,66.8z M593.1,338.7l0.5-5.9
	l4.2-3.4l1.9-1v-2.9l0.7-1.6l-1.1-1.6l-2.4,0.3l-2.1-2.5l-1.7-4.5l0.9-2.6l-2-3.2l-1.8-4.6l-4.6-0.7l-6.8-5.6l-2.2-4.2l0.8-3.3
	l2.2-6l0.6-3l-1.9-1l-6.9-0.6l-1.1-1.9v-4.1l-5.3-3.5l-7.2-7.8l-2.3-7.3L555,252l0.7-2.4l-2.6-3.1l-1.2-2.4l-7.7,0.8l-10,0.6
	l-48.8,1.2l1.3,2.6l-0.1,2.2l2.3,3.6l3,3.9l3.1,3l2.6,0.2l1.4,1.1v2.9l-1.8,1.6l-0.5,2.3l2.1,3.2l2.4,3l2.6,2.1l1.3,11.6l-0.8,40
	l0.5,5.7l23.7-0.2l23.3-0.7l32.5-1.3l2.2,3.7l-0.8,3.1l-3.1,2.5l-0.5,1.8l5.2,0.5l4.1-1.1L593.1,338.7z M604.3,472.5l2.6-4.2
	l1.8,0.8l6.8-1.9l2.1,0.3l1.5,0.8h5.2l0.4-1.6l-1.7-14.8l-2.8-19l1-45.1l-0.2-16.7l0.2-6.3l-4.8,0.3l-19.6,1.6l-13,0.4l-0.2,3.2
	l-2.8,1.3l-2.6,5.1l0.5,1.6l0.1,2.4l-2.9,1.1l-3.5,5.1l0.8,2.3l-3,2.5l-1,5.7l-0.6,1.9l1.6,2.5l-1.5,1.4l1.5,2.8l0.3,4.2l-1.2,2.5
	l-0.2,0.9l0.4,5l2,4.5l-0.1,1.7l2.3,2l-0.7,3.1l-0.9,0.3l0.6,1.9l-8.6,15l-0.8,8.2l0.5,1.5l24.2-0.7l8.2-0.7l1.9-0.3l0.6,1.4l-1,7.1
	l3.3,3.3l2.2,6.4L604.3,472.5z M361.1,70.8l-5.3,57.1l-1.3,15.2l-59.1-6.6l-49-7.1l-1.4,11.2l-1.9-1.7l-0.4-2.5l-1.3-1.9l-3.3,1.5
	l-0.7,2.5l-2.3,0.3l-3.8-1.6l-4.1,0.1l-2.4,0.7l-3.2-1.5l-3,0.2l-2.1,1.9l-0.9-0.6l-0.7-3.4l0.7-3.2l-2.7-3.2l-3.3-2.5l-2.5-12.6
	l-0.1-5.3l-1.6-0.8l-0.6,1l-4.5,3.2l-1.2-0.1l-2.3-2.8l-0.2-2.8l7-17.2l-0.6-2.7l-3.5-1.1l-0.4-0.9l-2.7-3.5l-4.6-10.4l-3.2-1.6
	l-1.8-4.3l1.3-4.6l-3.2-7.6l4.4-21.3l32.7,6.9l18.4,3.4l32.3,5.3l29.3,4l29.2,3.5l30.8,3.1L361.1,70.8z M786.7,357.7L774,350
	l-3.1-0.8l-16.6,2.1l-1.6-3l-2.8-2.2l-16.7,0.5l-7.4,0.9l-9.2,4.5l-6.8,2.7l-6.5,1.2l-13.4,1.4l0.1-4.1l1.7-1.3l2.7-0.7l0.7-3.8
	l3.9-2.5l3.9-1.5l4.5-3.7l4.4-2.3l0.7-3.2l4.1-3.8l0.7,1l2.5,0.2l2.4-3.6l1.7-0.4l2.6,0.3l1.8-4l2.5-2.4l0.5-1.8l0.1-3.5l4.4,0.1
	l38.5-5.6l57.5-12.3l2,4.8l3.6,6.5l2.4,2.4l0.6,2.3l-2.4,0.2l0.8,0.6l-0.3,4.2l-2.6,1.3l-0.6,2.1l-1.3,2.9l-3.7,1.6l-2.4-0.3
	l-1.5-0.2l-1.6-1.3l0.3,1.3v1h1.9l0.8,1.3l-1.9,6.3h4.2l0.6,1.6l2.3-2.3l1.3-0.5l-1.9,3.6l-3.1,4.8H828l-1.1-0.5l-2.7,0.6l-5.2,2.4
	l-6.5,5.3l-3.4,4.7l-1.9,6.5l-0.5,2.4l-4.7,0.5l-5.1,1.5L786.7,357.7z M836,331.5l2.6-2.5l3.2-2.6l1.5-0.6l0.2-2l-0.6-6.1l-1.5-2.3
	l-0.6-1.9l0.7-0.2l2.7,5.5l0.4,4.4l-0.2,3.4l-3.4,1.5l-2.8,2.4l-1.1,1.2L836,331.5z M471,126.4l-0.4-6.2l-1.8-7.3L467,99.3l-0.5-9.7
	l-1.9-3.2l-1.6-5.3V70.7l0.6-3.8l-1.8-5.5l-28.6-0.6l-18.6-0.6l-26.5-1.3l-25.2-2.2L362,71.1l-4.7,50.9l56.8,3.9l56.9,1.7L471,126.4
	L471,126.4z M470.3,204.3l-1-2.3l-0.5-1.6l-2.9-1.6l-4.8-1.5l-2.2-1.2l-2.6,0.1l-3.7,0.4l-4.2,1.2l-6-4.1l-2.2-2l-10.7,0.6
	l-41.5-2.4l-35.6-2.2l-4.3,43.7l33.1,3.3l-1.4,21.1l21.7,1l40.6,1.2l43.8,0.6h4.5l-2.2-3l-2.6-3.9l0.1-2.3l-1.4-2.7l-1.9-5.2
	l-0.4-6.7l-1.4-4.1l-0.5-5l-2.3-3.7l-1-4.7l-2.8-7.9l-1-5.3L470.3,204.3z M881.7,141.3l1.1-3.2l-2.7-1.2l-0.5-3.1l-4.1-1.1l-0.3-3
	l-11.7-37.5l-0.7,0.1l-0.6,1.6l-0.6-0.5l-1-1l-1.5,1.9l-0.2,2.3l0.5,8.4l1.9,2.8v4.3l-3.9,4.8l-2.4,0.9v0.7l1.1,1.9v8.6l-0.8,9.2
	l-0.2,4.7l1,1.4l-0.2,4.7l-0.5,1.5l1,1.1l5.1-1.2l13.8-3.5l1.7-2.9l4-1.9L881.7,141.3z M823.7,228.3l0.1-1.5l2.7-1.3l1.7-2.8
	l1.7-2.4l3.3-3.2v-1.2l-6.1-4.1l-1-2.7l-2.7-0.3l-0.1-0.9l-0.7-2.2l2.2-1.1l0.2-2.9l-1.3-1.3l0.2-1.2l1.9-3.1V193l2.5-3.1l5.6,2.5
	l6.4,1.9l2.5,1.2l0.1,1.8l-0.5,2.7l0.4,4.5l-2.1,1.9l-1.1,1l0.5,0.5l2.7-0.3l1.1-0.8l1.6,3.4l0.2,9.4l0.6,1.1l-1.1,5.5l-3.1,6.5
	l-2.7,4l-0.8,4.8l-2.1,2.4h-0.8l-0.3-2.7l0.8-1l-0.2-1.5l-4-0.6l-4.8-2.3l-3.2-2.9l-1-2L823.7,228.3z M270.2,429.4l-16.7-2.6
	l-1.2,9.6l-15.8-2l6-39.7l7-53.2l4.4-30.9l34,3.9l37.4,4.4l32,2.8l-0.3,10.8l-1.4-0.1l-7.4,97.7l-28.4-1.8l-38.1-3.7l0.7,6.3
	L270.2,429.4z M123.1,173.6l38.7,8.5l26,5.2l-10.6,53.1l-5.4,29.8l-3.3,15.5l-2.1,11.1l-2.6,16.4l-1.7,3.1l-1.6-0.1l-1.2-2.6
	l-2.8-0.5l-1.3-1.1l-1.8,0.1l-0.9,0.8l-1.8,1.3l-0.3,7.3l-0.3,1.5l-0.5,12.4l-1.1,1.8l-16.7-25.5l-42.1-62.1l-12.4-19l8.6-32.6
	l8-31.3L123.1,173.6z M843.4,200l0.5-2.7l-0.2-2.4l-3-1.5l-6.5-2l-6-2.6l-0.6-0.4l-2.7-0.3l-2-1.5l-2.1-5.9l-3.3-0.5l-2.4-2.4
	l-38.4,8.1l-31.6,6l-0.5-6.5l1.6-1.2l1.3-1.1l1-1.6l1.8-1.1l1.9-1.8l0.5-1.6l2.1-2.7l1.1-1l-0.2-1l-1.3-3.1l-1.8-0.2l-1.9-6.1
	l2.9-1.8l4.4-1.5l4-1.3l3.2-0.5l6.3-0.2l1.9,1.3l1.6,0.2l2.1-1.3l2.6-1.1l5.2-0.5l2.1-1.8l1.8-3.2l1.6-1.9h2.1l1.9-1.1l0.2-2.3
	l-1.5-2.1l-0.3-1.5l1.1-2.1v-1.5h-1.8l-1.8-0.8l-0.8-1.1l-0.2-2.6l5.8-5.5l0.6-0.8l1.5-2.9l2.9-4.5l2.7-3.7l2.1-2.4l2.4-1.8l3.1-1.2
	l5.5-1.3l3.2,0.2l4.5-1.5l7.4-2.2l0.7,4.9l2.4,6.5l0.8,5l-1,4.2l2.6,4.5l0.8,2l-0.9,3.2l3.7,1.7l2.7,10.2v5.8l-0.6,10.9l0.8,5.4
	l0.7,3.6l1.5,7.3v8.1l-1.1,2.3l2.1,2.7l0.5,0.9l-1.9,1.8l0.3,1.3l1.3-0.3l1.5-1.3l2.3-2.6l1.1-0.6l1.6,0.6l2.3,0.2l7.9-3.9l2.9-2.7
	l1.3-1.5l4.2,1.6l-3.4,3.6l-3.9,2.9l-7.1,5.3l-2.6,1l-5.8,1.9l-4,1.1l-1-0.4L843.4,200z M663.8,211.2l1.7,15.5l4.8,41.1l3.9-0.2
	l2.3-0.8l3.6,1.8l1.7,4.2l5.4,0.1l1.8,2h1.7l2.4-1.4l3.1,0.5l1.5,1.3l1.8-2l2.3-1.4l2.4-0.4l0.6,2.7l1.6,1l2.6,2l0.8,0.2l2-0.1
	l1.2-0.6v-2.1l1.7-1.5l0.1-4.8l1.1-4.2l1.9-1.3l1,0.7l1,1.1l0.7,0.2l0.4-0.4l-0.9-2.7v-2.2l1.1-1.4l2.5-3.6l1.3-1.5l2.2,0.5l2.1-1.5
	l3-3.3l2.2-3.7l0.2-5.4l0.5-5V230l-1.2-3.2l1.2-1.8l1.3-1.2l-0.6-2.8l-4.3-25.6l-6.2,3.7l-3.9,2.3l-3.4,3.7l-4,3.9l-3.2,0.8
	l-2.9,0.5l-5.5,2.6l-2.1,0.2l-3.4-3.1l-5.2,0.6l-2.6-1.5l-2.2-1.3L663.8,211.2z M411.9,334.9l-1.8,24.3l-0.9,18l0.2,1.6l4,3.6
	l1.7,0.9h0.9l0.9-2.1l1.5,1.9l1.6,0.1l0.3-0.2l0.2-1.1l2.8,1.4l-0.4,3.5l3.8,0.5l2.5,1l4.2,0.6l2.3,1.6l2.5-1.7l3.5,0.7l2.2,3.1
	l1.2,0.1v2.3l2.1,0.7l2.5-2.1l1.8,0.6l2.7,0.1l0.7,2.3l4.4,1.8l1.7-0.3l1.9-4.2h1.3l1.1,2.1l4.2,0.8l3.4,1.3l3,0.8l1.6-0.7l0.7-2.7
	h4.5l1.9,0.9l2.7-1.9h1.4l0.6,1.4h3.6l2-1.8l2.3,0.6l1.7,2.2l3,1.7l3.4,0.9l1.9,1.2l-0.3-37.6l-1.4-10.9l-0.1-8.6l-1.5-6.6l-0.6-6.8
	l0.1-4.3l-12.6,0.3l-46.3-0.5l-44.7-2.1l-41.5-1.8l-0.4,10.7L411.9,334.9z M67.4,158.9l28.2,7.2l27.5,6.5l17,3.7l8.8-35.1l1.2-4.4
	l2.4-5.5l-0.7-1.3l-2.5,0.1l-1.3-1.8l0.6-1.5l0.4-3.3l4.7-5.7l1.9-0.9l0.9-0.8l0.7-2.7l0.8-1.1l3.9-5.7l3.7-4l0.2-3.3l-3.4-2.5
	l-1.2-4.6l-13.1-3.8L132.9,85l-14.8,0.4l-1.1-1.3l-5.1,1.8l-4.5-0.5l-2.4-1.6l-1.3,0.5L99,84.1l-2-1.4l-4.8-1.8l-1.1-0.1l-4.4-1.3
	L84.9,81l-6.3-0.2L73.3,77l0.2-9.3l-2.1-3.5l-4.1-0.6l-0.7-2.5l-2.4-0.5l-5.8,2.1l-2.3,6.5l-3.2,10l-3.2,6.5l-5,14.1l-6.5,13.6
	l-8,12.6l-1.9,2.9l-0.8,8.6l-1.3,6l2.7,3.5L67.4,158.9z M736.6,192.2l1.3-0.5l5.7-5.5l0.7,6.9l33.5-6.5l36.9-7.8l2.3,2.3l3.1,0.4
	l2,5.6l2.4,1.9l2.8,0.4l0.1,0.1l-2.6,3.2v3.1l-1.9,3.1l-0.2,1.9l1.3,1.3l-0.2,1.9l-2.4,1.1l1,3.4l0.2,1.1l2.8,0.3l0.9,2.5l5.9,3.9
	v0.4l-3.1,3l-1.5,2.2l-1.7,2.8l-2.7,1.2l-1.4,0.3l-2.1,1.3l-1.6,1.4l-22.4,4.3L757,241l-11.3,1.4l-3.9,0.7l-5.1-22.4l-4.3-25.9
	L736.6,192.2z M873.6,175.7l-0.8-4.4l-1.6-6l5.7-1.5l1.5,1.3l3.4,4.3l2.8,4.4l-2.8,1.4l-1.3-0.2l-1.1,1.8l-2.4,1.9l-2.8,1.1
	L873.6,175.7z M759,413.6l-2.1-1L755,407l-2.5-2.3l-2.5-0.5l-1.5-4.6l-3-6.5l-4.2-1.8l-1.9-1.8l-1.2-2.6l-2.4-2l-2.3-1.3l-2.2-2.9
	l-3.2-2.4l-4.4-1.7l-0.4-1.4l-2.3-2.8l-0.5-1.5l-3.8-5.4l-3.4,0.1l-3.9-2.5l-1.2-1.2l-0.2-1.4l0.6-1.6l2.7-1.3l-0.8-2l6.4-2.7
	l9.2-4.5l7.1-0.9l16.4-0.5l2.3,1.9l1.8,3.5l4.6-0.8l12.6-1.5l2.7,0.8l12.5,7.4l10.1,8.3l-5.3,5.4l-2.6,6.1l-0.5,6.3l-1.6,0.8
	l-1.1,2.7l-2.4,0.6l-2.1,3.6l-2.7,2.7l-2.3,3.4L774,399l-3.6,3.4l-2.9,0.2l1,3.2l-5,5.3l-2.3,1.6L759,413.6z M471,181.1l-0.9,3.2
	l0.4,3l2.6,2l-1.2,5.4l-1.8,4.1l1.5,3.3l0.7,1.1l-1.3,0.1l-0.7-1.6l-0.6-2l-3.3-1.8l-4.8-1.5l-2.5-1.3l-2.9,0.1l-3.9,0.4l-3.8,1.2
	l-5.3-3.8l-2.7-2.4l-10.9,0.8l-41.5-2.4l-35.6-2.2L354,162l2.8-34l0.4-5l56.9,3.9l56.9,1.7v2.7l-1.3,1.5l-2,1.5l-0.1,2.2l1.1,2.2
	l4.1,3.4l0.5,2.7v35.9L471,181.1z M670.8,359.6l-13.1,1.2l-23.3,2.2l-37.6,2.7l-11.8,0.4l0.9-0.6l0.9-4.5l-1.2-3.6l3.9-2.3l0.4-2.5
	l1.2-4.3l3-9.5l0.5-5.6l0.3-0.2l12.3-0.2l13.6-0.8l0.1-3.9l3.5-0.1l30.4-3.3l54-5.2l10.3-1.5l7.6-0.2l2.4-1.9l1.3,0.3l-0.1,3.3
	l-0.4,1.6l-2.4,2.2l-1.6,3.6l-2-0.4l-2.4,0.9l-2.2,3.3l-1.4-0.2l-0.8-1.2l-1.1,0.4l-4.3,4l-0.8,3.1l-4.2,2.2l-4.3,3.6l-3.8,1.5
	l-4.4,2.8l-0.6,3.6l-2.5,0.5l-2,1.7l-0.2,4.8L670.8,359.6z M282.8,425.6l37,3.6l29.3,1.9l7.4-97.7l54.4,2.4l-1.7,23.3l-1,18l0.2,2
	l4.4,4.1l2,1.1h1.8l0.5-1.2l0.7,0.9l2.4,0.2l1.1-0.6v-0.2l1,0.5l-0.4,3.7l4.5,0.7l2.4,0.9l4.2,0.7l2.6,1.8l2.8-1.9l2.7,0.6l2.2,3.1
	l0.8,0.1v2.1l3.3,1.1l2.5-2.1l1.5,0.5l2.1,0.1l0.6,2.1l5.2,2l2.3-0.5l1.9-4h0.1l1.1,1.9l4.6,0.9l3.4,1.3l3.2,1l2.4-1.2l0.7-2.3h3.6
	l2.1,1l3-2h0.4l0.5,1.4h4.7l1.9-1.8l1.3,0.4l1.7,2.1l3.3,1.9l3.4,1l2.5,1.4l2.7,2l3.1-1.2l2.1,0.8l0.7,20l0.7,9.5l0.6,4.1l2.6,4.4
	l0.9,4.5l4.2,5.9l0.3,3.1l0.6,0.8l-0.7,7.7l-2.9,4.8l1.3,2.6l-0.5,2.4l-0.8,7.2l-1.3,3l0.3,4.2l-5.6,1.6l-9.9,4.5l-1,1.9l-2.6,1.9
	l-2.1,1.5l-1.3,0.8l-5.7,5.3l-2.7,2.1l-5.3,3.2l-5.7,2.4l-6.3,3.4l-1.8,1.5l-5.8,3.6l-3.4,0.6l-3.9,5.5l-4,0.3l-1,1.9l2.3,1.9
	l-1.5,5.5l-1.3,4.5l-1.1,3.9l-0.8,4.5l0.8,2.4l1.8,7l1,6.1l1.8,2.7l-1,1.5l-3.1,1.9l-5.7-3.9l-5.5-1.1l-1.3,0.5l-3.2-0.6l-4.2-3.1
	l-5.2-1.1l-7.6-3.4l-2.1-3.9l-1.3-6.5l-3.2-1.9l-0.6-2.3l0.6-0.6l0.3-3.4l-1.3-0.6l-0.6-1l1.3-4.4l-1.6-2.3l-3.2-1.3l-3.4-4.4
	l-3.6-6.6l-4.2-2.6l0.2-1.9l-5.3-12.3l-0.8-4.2l-1.8-1.9l-0.2-1.5l-6-5.3l-2.6-3.1v-1.1l-2.6-2.1l-6.8-1.1l-7.4-0.6l-3.1-2.3
	l-4.5,1.8L352,483l-2.3,3.2l-1,3.7l-4.4,6.1l-2.4,2.4l-2.6-1l-1.8-1.1l-1.9-0.6l-3.9-2.3v-0.6l-1.8-1.9l-5.2-2.1l-7.4-7.8l-2.3-4.7
	v-8.1l-3.2-6.5l-0.5-2.7l-1.6-1l-1.1-2.1l-5-2.1l-1.3-1.6l-7.1-7.9l-1.3-3.2l-4.7-2.3l-1.5-4.4l-2.6-2.9l-1.7-0.5L282.8,425.6z
	 M457.2,567.3l-0.6-7.1l-2.7-7.2l-0.6-7l1.5-8.2l3.3-6.9l3.5-5.4l3.2-3.6l0.6,0.2l-4.8,6.6l-4.4,6.5l-2,6.6l-0.3,5.2l0.9,6.1
	l2.6,7.2l0.5,5.2l0.2,1.5L457.2,567.3z M228.4,305.9l24.6,3.6l1.9-13.7l7-50.5l2.3-22l-32.2-3.5l2.2-13.1l1.8-10.6l-34.7-6.1
	l-12.5-2.5l-10.6,52.9l-5.4,30l-3.3,15.4l-1.7,9.2L228.4,305.9z M834.7,265.2l-0.2,2.8l-2.9,3.8l-0.4,4.6l0.5,3.4l-1.8,5l-2.2,1.9
	l-1.5-4.6l0.4-5.4l1.6-4.2l0.7-3.3l-0.1-1.7L834.7,265.2z M774.4,309.8l-38.6,5.6l-4.8-0.1l-2.2-0.3l-2.5,1.9L719,317l-10.3,1.6
	l-6.7,0.6l4.1-2.6l4.1-2.3v-2.1l5.7-7.3l4.1-3.7l2.2-2.5l3.6,4.3l3.8,0.9l2.7-1l2-1.5l2.4,1.2l4.6-1.3l1.7-4.4l2.4,0.7l3.2-2.3
	l1.6,0.4l2.8-3.2l0.2-2.7l-0.8-1.2l4.8-10.5l1.8-5.2l0.5-4.7l0.7-0.2l1.1,1.7l1.5,1.2l3.9-0.2l1.7-8.1l3-0.6l0.8-2.6l2.8-2.2
	l1.1-2.1l1.8-4.3l0.1-4.6l3.6,1.4l6.6,3.1l0.3-5.2l3.4,1.2l-0.6,2.9l8.6,3.1l1.4,1.8l-0.8,3.3l-1.3,1.3l-0.5,1.7l0.5,2.4l2,1.3
	l3.9,1.4l2.9,1l4.9,0.9l2.2,2.1l3.2,0.4l0.9,1.2l-0.4,4.7l1.4,1.1l-0.5,1.9l1.2,0.8l-0.2,1.4l-2.7-0.1l0.1,1.6l2.3,1.5l0.1,1.4
	l1.8,1.8l0.5,2.5l-2.6,1.4l1.6,1.5l5.8-1.7l3.7,6.2L774.4,309.8z M832.7,111.3l2.4,6.5l0.8,5.3l-1,3.9l2.5,4.4l0.9,2.3l-0.7,2.6
	l3.3,1.5l2.9,10.8v5.3l11.5-2.1l-1-1.1l0.6-1.9l0.2-4.3l-1-1.4l0.2-4.7l0.8-9.3v-8.5l-1.1-1.8v-1.6l2.8-1.1l3.5-4.4v-3.6l-1.9-2.7
	l-0.3-5.8l-26.1,6.8L832.7,111.3z M74.5,67.7l-2.3-4.3l-4.1-0.7l-0.4-2.4l-2.5-0.6l-2.9-0.5l-1.8,1l-2.3-2.9l0.3-2.9l2.7-0.3l1.6-4
	L60.2,49l0.2-3.7l4.4-0.6L62.1,42l-1.5-7.1l0.6-2.9v-7.9l-1.8-3.2l2.3-9.4l2.1,0.5l2.4,2.9l2.7,2.6l3.2,1.9l4.5,2.1l3.1,0.6l2.9,1.5
	l3.4,1l2.3-0.2V22l1.3-1.1l2.1-1.3l0.3,1.1l0.3,1.8L90,23l-0.3,2.1l1.8,1.5l1.1,2.4l0.6,1.9l1.5-0.2l0.2-1.3l-1-1.3l-0.5-3.2
	l0.8-1.8l-0.6-1.5V19l1.8-3.6l-1.1-2.6L91.9,8l0.3-0.8l1.4-0.8L98,7.9l9.7,2.7l8.6,1.9l20,5.7l23,5.7l15,3.5L169.5,45L165,65.8
	L161.6,82l-0.4,9.2l0,0l-12.9-3.7L133,84l-14.5,0.3l-1.1-1.5l-5.7,2.1l-3.9-0.4l-2.6-1.8l-1.7,0.7l-4.2-0.2l-1.7-1.3l-5.2-1.8
	l-1.2-0.2l-4.8-1.4L84.6,80l-5.7-0.2l-4.6-3.3L74.5,67.7z M84.1,12.3l2-0.2l0.5,1.4l1.5-1.6h2.3l0.8,1.5l-1.5,1.7l0.6,0.8l-0.7,2
	l-1.4,0.4c0,0-0.9,0.1-0.9-0.2c0-0.3,1.5-2.6,1.5-2.6l-1.7-0.6l-0.3,1.5L86.1,17l-1.5-2.3L84.1,12.3z M541.4,109.9l2.9,0.5l2.9-0.6
	l7.4-3.2l2.9-1.9l2.1-0.8l1.9,1.5l-1.1,1.1l-1.9,3.1l-0.6,1.9l1,0.6l1.8-1l1.1-0.2l2.7,0.8l0.6,1.1l1.1,0.2l0.6-1.1l4,5.3l8.2,1.2
	l8.2,2.2l2.6,1.1l12.3,2.6l1.6,2.3l3.6,1.2L609,138l1.6,1.4l1.5,0.9l-1.1,2.3l-1.8,1.6l-2.1,4.7l-1.3,2.4l0.2,1.8l1.5,0.3l1.1-1.9
	l1.5-0.8l0.8-2.3l1.9-1.8l2.7-4l4.2-6.3l0.8-0.5l0.3,1l-0.2,2.3l-2.9,6.8l-2.7,5.7l-0.5,3.2l-0.6,2.6l0.8,1.3l-0.2,2.7l-1.9,2.4
	l-0.5,1.8l0.6,3.6l0.6,3.4l-1.5,2.6l-0.8,2.9l-1,3.1l1.1,2.4l0.6,6.1l1.6,4.5l-0.2,3l-15.9,1.8l-17.5,1H567l-0.7-1.5l-2.9-0.4
	l-2.6-1.3l-2.3-3.7l-0.3-3.6l2-2.9l-0.5-1.4l-2.1-2.2l-0.8-3.3l-0.6-6.8l-2.1-2.5l-7-4.5l-3.8-5.4l-3.4-1l-2.2-2.8h-3.2l-2.9-3.3
	l-0.5-6.5l0.1-3.8l1.5-3.1l-0.8-3.2l-2.5-2.8l1.8-5.4l5.2-3.8l1.6-1.9l-0.2-8.1l0.2-2.8l2.4-2.8L541.4,109.9z M758.9,254.3l5.8-6
	l2.6-0.8l1.6-1.5l1.5-2.2l1.1,0.3l3.1-0.2l4.6-3.6l1.5-0.5l1.3,1l2.6,1.2l3,3l-0.4,4.3l-5.4-2.6l-4.8-1.8l-0.1,5.9l-2.6,5.7
	l-2.9,2.4l-0.8,2.3l-3,0.5l-1.7,8.1l-2.8,0.2l-1.1-1l-1.2-2l-2.2,0.5l-0.5,5.1l-1.8,5.1l-5,11l0.9,1.4l-0.1,2l-2.2,2.5l-1.6-0.4
	l-3.1,2.3l-2.8-0.8l-1.8,4.9l-3.8,1l-2.5-1.3l-2.5,1.9l-2.3,0.7l-3.2-0.8l-3.8-4.5l-3.5-2.2l-2.5-2.5l-2.9-3.7l-0.5-2.3l-2.8-1.7
	l-0.6-1.3l-0.2-5.6l0.3,0.1l2.4-0.2l1.8-1V275l1.7-1.5l0.1-5.2l0.9-3.6l1.1-0.7l0.4,0.3l1,1.1l1.7,0.5l1.1-1.3l-1-3.1v-1.6l3.1-4.6
	l1.2-1.3l2,0.5l2.6-1.8l3.1-3.4l2.4-4.1l0.2-5.6l0.5-4.8v-4.9l-1.1-3l0.9-1.3l0.8-0.7l4.3,19.3l4.3-0.8l11.2-1.3L758.9,254.3z
	 M353,161.9l-1.5,25.4l-4.4,44l-2.7-0.3l-83.3-9.1l-27.9-3l2-12l6.9-41l3.8-24.2l1.3-11.2l48.2,7l59.1,6.5L353,161.9z"/>
</svg>
